<?xml version="1.0" encoding="utf-8"?>
<!-- Generator: Adobe Illustrator 26.3.1, SVG Export Plug-In . SVG Version: 6.00 Build 0)  -->
<svg version="1.1" id="Vrstva_1" xmlns="http://www.w3.org/2000/svg" xmlns:xlink="http://www.w3.org/1999/xlink" x="0px" y="0px"
	 viewBox="0 0 744 283.5" style="enable-background:new 0 0 744 283.5;" xml:space="preserve">
<style type="text/css">
	.st0{fill:#E5BF1C;}
	.st1{fill:#006BCC;}
	.st2{fill:#E04221;}
</style>
<path class="st0" d="M61.8,8.8c-10.9,8.8-27.7,26.2-35.7,35.5C21.2,49.9,13.6,58.5,15.3,64c1.3,4.2,8,4.4,14.6,0
	c6.6-4.5,12.8-9.4,18.7-14.8c10.5-9.8,12.6-12.5,13.2-13.1c1-1.1,1.6-0.4,1.6,0.5c0.1,1.8-0.3,9.4-0.3,14.2
	c0.1,5.2,1.2,12.7,8.1,15.5c6.9,2.8,16.9-3,29.2-12.8c3.6-2.9,4.7-3.9,6.9-5.5c2.5-1.9,2.3,0.1,2.2,2.1c-0.2,3.6,0.3,9.4,5.1,12.1
	c5.1,3,14.5,3.2,30.2-7.4c13.1-8.8,21.4-13.3,28.8-22.1c3.1-3.6,6.5-13.2-1.6-17.4c-5.3-2.7-13.6,0.5-19.8,3.3
	c-3.9,1.9-7.7,4.1-11.4,6.4c-1.2,0.8-2.9,1.9-3.4,0.5c-0.2-0.5,0.2-3.2,0-5.5c-0.3-4.5-1.7-10.2-8.2-12.3
	c-5.1-1.7-10.4,0.3-14.5,2.8S96,25.4,90.8,29.7c-2.3,1.9-5.4,3.9-6.1-3.3c-0.8-8-1.9-15.5-5.5-19C76.4,4.6,69.2,2.9,61.8,8.8"/>
<path class="st1" d="M120,96c-0.6-5.4-1.1-13.8-8.4-14.5c-3.2-0.3-11.1,1.2-14.7,14.6c-3.3,12.4-1.9,25.3-0.3,33
	c2.1,10.5,8.4,29.7,24.5,34.4c17.4,5.1,39-9.5,51.3-42.9c10.3-28.1,5-33.8,0.6-34.7c-5.6-1.2-11,9.4-21.6,19.6
	c-10.3,10-15.7,17-23.8,13.2C121.7,115.9,120.8,104,120,96"/>
<path class="st1" d="M560,120.3c0.9-6.8,2.6-21.3,3-32.4c0.4-10.1-6.2-12.9-12-9.3c-7.4,4.7-18.4,17.5-29.1,58.5s-8.6,66.2-7,70.8
	c2.8,8.1,9.6,8.4,14.7,2.8c5.6-6.3,13.3-25.4,16.8-31.9c0.7-1.3,1.8-2.5,3.9-1.5c2.7,1.3,14,7.9,32.4,15.8
	c16.3,7,21.3,8.8,31.3,10.4c16.4,2.6,19.1-7.8,13.8-14.4c-5-6.2-10.5-9.2-19.9-15.3c-12.1-7.9-28.5-15-29.3-18.9
	c-0.5-2.5,6.7-4.7,15.9-8.9c7.6-3.4,20.6-9.4,32.4-20.9c10.2-9.9,2.8-16.4-2.8-16.4c-6,0-12.8,1.4-28.1,6.6
	c-13,4.4-21.3,7.5-31.6,12.4C559.7,130.1,558.7,130.6,560,120.3"/>
<path class="st1" d="M212.6,65c-5.5,1.5-16.3,6.4-8.8,13.8c8.8,8.7,35,7,45.9,3.9c8.4-2.4,21.5-9.5,26-19.4
	c4.2-9.4-3.3-12.9-16.7-10C242.8,56.7,234.5,59.2,212.6,65"/>
<path class="st1" d="M219,96.4c-6.4,1-17.8,3.7-24.1,7.2c-4.4,2.5-6.8,7.1-6.3,11c0.7,5.2,5.1,9.2,10.4,9.3c11.4,0.8,25.2-3,26,0.5
	c0.6,2.3-5.1,8.5-8,12c-5,6.2-26.9,29.7-35.8,44.6c-5,8.5-7.9,15.4-5.8,22.7c2.3,8.1,12,11.2,24,10.8c22.8-0.8,30.7-1,45.6-2.9
	c11.9-1.5,27.3-4.4,24.7-17.2c-1.6-8-15.9-11.2-20.4-12.1c-6.9-1.4-12.5-1.2-19.8-2c-3.1-0.3-2.8-2.7-0.4-6.3
	c2.2-3.3,2.9-4.2,5.6-7.8c4.2-5.6,33.6-45,37.8-56.7c2.4-6.7-0.2-13.2-9.4-15.2c-10-2.2-32.1,0.2-44.3,2"/>
<path class="st1" d="M388.1,55.2c-5.3,2.4-17.3,8.4-20.3,12.9s-1.9,12.2,6.4,12.2c9.2,0,22.1-1.6,32.6-5.6s16.4-7.5,16.1-15.6
	c-0.3-8.8-9.5-12.3-18-10C399.2,50.6,393.5,52.6,388.1,55.2"/>
<path class="st1" d="M410.6,96.2c-4,4.6-10.6,8.1-17.1,67.9c-5.7,52.8,15.4,46.3,19.6,41.6c7.2-8.1,9.1-15.9,15.7-33.7
	c5.6-15.2,4.8-17.8,7.9-13.4s16.4,27.9,29.4,39.5s18.6-3.4,22.4-10.8s24.3-64.2,20.4-78.8s-17.9-12.3-26.5,4.2
	c-10.3,19.7-9.9,26.7-14,21.9c-3.1-3.8-18.8-28.8-27.6-38.7C432.1,86.1,418.8,86.6,410.6,96.2"/>
<path class="st1" d="M681.9,67.9c-5.1,0.4-11.7,6-18.4,16.6c-5.9,9.2-10.6,15.8-16.6,35.6s3,33.5,14.6,40
	c10.5,5.9,17.7,5.3,24.4,4.4s11.5-4.6,7.6,2.7c-3.7,7-10.2,17-25.8,25.4c-13.1,7-21.5,1.1-23,10.7c-0.8,5.3,7.2,15.6,27.6,15.2
	s44.9-8.9,58.1-58.5c10.5-39.6,9.2-47.8,1.7-53.7c-10.9-8.6-23.1,8.3-25.6,11.3c-3.5,4.2-11.1,15.3-20.2,16
	c-7.2,0.6-11.3-5.6-6.8-17c5.4-13.5,12.1-31.7,12.6-38.3C693,69.7,686.9,67.6,681.9,67.9"/>
<path class="st1" d="M342.1,127.1c-0.2,1.5-0.6,3-1.1,4.5c-0.3,1.1-0.8,2.1-1.4,3.1l0,0c-3.3,6.5-8.4,12-14.6,15.8
	c-2,1.3-4.4,2-6.8,1.9c-2-0.1-3.8-1-5.1-2.5c-1.4-1.9-2-4.3-1.5-6.7c1.3-8.4,6.7-16.4,17.4-20c1.6-0.5,3.3-0.9,5-1.2l0,0l0.4-0.1
	c0.3,0,3.8-0.4,5.4,0.4s2.4,1.6,2.6,3.1C342.2,126,342.2,126.5,342.1,127.1L342.1,127.1 M373.8,167.4c-1.3-5.2-2.9-11.6-2.1-19.1
	c0.4-3.5,1.6-7.4,3-11.6c3.4-10.5,7.6-23.5-1.7-37.1c-5.4-7.8-14.3-12.4-25.8-13.2s-23.6,2.5-30.4,6.1c-23.5,12.7-36.6,30.1-39,51.9
	c-1.1,10.1,2,20.1,8.5,27.8c6.1,7,14.7,11.3,24,11.9c11.8,0.8,24.9-3.7,38-13.2c2,5,5.4,9.4,9.8,12.5c1.8,1.2,3.8,2,6,2.2
	c5.9,0.4,10.3-4.5,11-9.3C375.5,174.1,374.7,171.1,373.8,167.4"/>
<path class="st1" d="M62,172.5c2.9-13.6,9.3-40.3,11.3-51.2c1.8-9.5,6-29.3-0.9-32.9c-5.5-2.9-14.7,2.6-21.7,12.8
	s-21.2,35.3-26.8,75.7s16.4,39.7,26.3,39.3c17.3-0.7,29.2-5.9,40.9-11.2c26-11.9,22.3-25.4,13.9-28.2c-10.7-3.5-23.3-2.4-34.6-2.1
	C63.5,174.9,61.4,175.5,62,172.5"/>
<path class="st2" d="M1.2,232.1c0.9,8.7,5.2,17.6,14,27.1c11.5,12.4,22,16.5,38.3,15c17.4-1.6,34.8-16.6,43.9-30.9
	c7.8-12.2,7.7-21.4,3.7-22.8c-4.6-1.6-9.3,4.1-18.1,10.8c-11.1,8.5-26.3,15.9-41.6,12.8C22,240.3,15,222.4,6.7,222.5
	C1.7,222.5,0.5,226.3,1.2,232.1"/>
</svg>
